<?xml version="1.0" standalone="no"?>
<!DOCTYPE svg PUBLIC "-//W3C//DTD SVG 20010904//EN"
 "http://www.w3.org/TR/2001/REC-SVG-20010904/DTD/svg10.dtd">
<svg version="1.0" xmlns="http://www.w3.org/2000/svg"
 width="1024.000000pt" height="1024.000000pt" viewBox="0 0 1024.000000 1024.000000"
 preserveAspectRatio="xMidYMid meet">
<metadata>
Created by potrace 1.14, written by Peter Selinger 2001-2017
</metadata>
<g transform="translate(0.000000,1024.000000) scale(0.100000,-0.100000)"
fill="#000000" stroke="none">
<path d="M8502 8159 c-103 -18 -59 10 -717 -449 -121 -84 -247 -172 -280 -195
l-60 -41 -500 188 c-535 201 -586 218 -661 218 -53 0 -148 -20 -178 -37 -16
-9 -26 -6 -55 17 -25 20 -67 36 -141 54 -343 82 -646 130 -1028 161 -253 21
-1203 21 -1454 0 -716 -58 -1320 -201 -1775 -420 -312 -150 -529 -300 -744
-515 -314 -314 -519 -699 -617 -1162 -54 -254 -57 -295 -57 -888 0 -532 1
-561 23 -700 94 -585 304 -1008 683 -1375 391 -377 911 -628 1629 -784 159
-34 515 -89 690 -106 91 -8 190 -18 220 -21 30 -3 196 -11 369 -19 528 -22
943 11 1436 115 450 95 933 299 1224 517 24 18 47 33 50 33 4 0 19 -104 35
-231 40 -330 43 -346 86 -389 58 -58 79 -60 654 -60 582 0 608 2 666 60 21 21
40 52 44 70 3 19 6 353 6 743 l-1 710 48 28 c62 35 124 101 157 164 21 42 128
337 197 545 10 30 45 134 79 230 34 96 71 202 82 235 11 33 24 64 29 69 4 5
45 19 91 31 46 13 225 62 398 110 173 48 380 105 459 127 219 59 297 115 368
266 41 88 49 144 34 240 -13 82 -46 155 -98 220 -20 24 -112 101 -207 172
-226 170 -356 268 -559 423 -155 118 -168 131 -163 155 3 15 7 92 11 172 8
208 34 751 40 842 10 165 -69 340 -189 415 -83 53 -222 80 -324 62z m166 -184
c53 -16 111 -65 138 -116 31 -61 32 -108 14 -513 -11 -220 -22 -468 -25 -551
-3 -82 -8 -171 -11 -197 l-5 -47 458 -347 c252 -190 475 -363 496 -383 105
-98 112 -246 18 -352 -49 -57 -74 -67 -296 -128 -636 -175 -951 -263 -956
-269 -3 -4 -38 -99 -76 -212 -253 -731 -317 -910 -341 -950 -42 -68 -108 -104
-197 -108 -93 -5 -146 17 -203 84 -38 46 -193 277 -527 787 l-140 214 -225 6
c-124 4 -389 9 -590 13 -379 5 -445 11 -494 44 -43 28 -94 97 -107 144 -15 55
-7 144 16 189 18 33 582 747 707 896 26 31 48 63 48 71 0 8 -20 80 -44 160
-24 80 -102 334 -172 565 -137 452 -145 492 -108 570 26 56 103 129 150 143
96 28 105 25 699 -198 307 -115 565 -210 572 -210 7 0 186 120 396 267 210
146 402 281 427 298 25 17 73 50 107 74 103 72 170 86 271 56z m-3668 -84
c227 -23 334 -38 550 -77 143 -26 366 -77 375 -86 3 -2 -14 -42 -38 -87 l-42
-83 1 -112 c1 -105 4 -120 53 -276 28 -91 63 -203 77 -250 14 -47 32 -105 39
-130 7 -25 25 -81 38 -125 14 -44 37 -120 52 -170 14 -49 35 -116 45 -148 l19
-58 -47 -54 c-26 -29 -81 -97 -122 -151 -41 -54 -99 -125 -127 -159 -29 -33
-71 -86 -93 -117 l-41 -58 -73 0 c-68 0 -75 2 -90 25 -33 51 -134 140 -221
197 -178 115 -423 184 -815 229 -159 19 -633 15 -815 -5 -291 -33 -543 -94
-689 -168 -238 -119 -398 -312 -463 -556 -23 -86 -26 -122 -30 -324 -8 -373
28 -534 163 -724 141 -200 406 -337 780 -403 400 -72 1303 -64 1676 14 179 38
351 104 469 180 67 43 229 189 229 206 0 5 -381 9 -860 9 l-860 0 0 460 0 460
645 0 c355 0 645 -3 645 -6 0 -3 -7 -28 -16 -55 -20 -60 -15 -184 10 -266 25
-79 92 -171 164 -225 101 -75 111 -76 754 -90 307 -6 562 -14 567 -17 8 -6 63
-89 386 -581 223 -341 237 -360 286 -404 70 -63 173 -106 257 -106 l34 0 -4
-670 -3 -670 -531 0 -531 0 -6 53 c-21 189 -97 771 -102 775 -2 2 -38 -26 -79
-62 -481 -419 -1117 -663 -1956 -748 -168 -17 -918 -17 -1150 0 -1224 91
-2080 421 -2575 995 -309 358 -482 796 -526 1329 -16 201 -6 990 14 1128 105
708 408 1206 962 1575 521 348 1234 544 2215 609 30 2 312 2 625 1 497 -2 596
-5 775 -24z m-340 -1880 c230 -32 386 -74 515 -139 106 -53 152 -87 250 -187
82 -84 94 -93 138 -99 l47 -7 -20 -27 c-47 -63 -49 -65 -62 -55 -38 31 -127
34 -773 31 l-650 -3 -47 -23 c-36 -18 -52 -34 -70 -70 -23 -47 -23 -50 -26
-507 -4 -552 -1 -579 82 -638 l31 -22 620 -5 620 -5 -80 -22 c-177 -49 -359
-70 -750 -83 -418 -15 -816 8 -1062 61 -117 25 -279 84 -372 135 -103 58 -209
170 -259 274 -22 47 -47 114 -56 150 -23 90 -32 373 -17 523 45 456 364 673
1086 736 55 5 235 8 400 6 237 -2 333 -7 455 -24z"/>
</g>
</svg>
